<svg width="176" height="52" viewBox="0 0 176 52" fill="none" xmlns="http://www.w3.org/2000/svg">
<path d="M174.751 45.8605C174.751 46.515 174.622 47.163 174.372 47.7676C174.121 48.3722 173.754 48.9214 173.29 49.384C172.827 49.8465 172.277 50.2133 171.672 50.4632C171.067 50.7132 170.419 50.8415 169.764 50.8409H6.56664C5.24391 50.8422 3.97479 50.3183 3.03839 49.3844C2.10198 48.4504 1.57497 47.1829 1.57324 45.8605V6.14367C1.57497 4.8207 2.10177 3.55248 3.03799 2.61748C3.97421 1.68249 5.24331 1.15714 6.56664 1.1568H169.763C170.418 1.1568 171.067 1.2858 171.672 1.53643C172.277 1.78706 172.827 2.15441 173.29 2.6175C173.753 3.08059 174.12 3.63035 174.371 4.23538C174.621 4.8404 174.75 5.48885 174.75 6.14367L174.751 45.8605Z" fill="white"/>
<path d="M169.765 52H6.56704C4.93759 51.9997 3.37483 51.3531 2.22166 50.2022C1.0685 49.0513 0.419116 47.49 0.416016 45.861L0.416016 6.14549C0.418426 4.51567 1.06738 2.95335 2.22051 1.80126C3.37364 0.649163 4.93678 0.00137563 6.56704 0L169.764 0C171.394 0.00206204 172.956 0.650069 174.109 1.80201C175.262 2.95396 175.911 4.51588 175.915 6.14549V45.861C175.917 49.2471 173.153 52 169.765 52Z" fill="#A6A6A6"/>
<path d="M174.751 45.8605C174.751 46.515 174.622 47.163 174.372 47.7676C174.121 48.3722 173.754 48.9214 173.29 49.384C172.827 49.8465 172.277 50.2133 171.672 50.4632C171.067 50.7132 170.419 50.8415 169.764 50.8409H6.56664C5.24391 50.8422 3.97479 50.3183 3.03839 49.3844C2.10198 48.4504 1.57497 47.1829 1.57324 45.8605V6.14367C1.57497 4.8207 2.10177 3.55248 3.03799 2.61748C3.97421 1.68249 5.24331 1.15714 6.56664 1.1568H169.763C170.418 1.1568 171.067 1.2858 171.672 1.53643C172.277 1.78706 172.827 2.15441 173.29 2.6175C173.753 3.08059 174.12 3.63035 174.371 4.23538C174.621 4.8404 174.75 5.48885 174.75 6.14367L174.751 45.8605Z" fill="black"/>
<path d="M39.6033 25.7276C39.5656 21.5365 43.0359 19.4976 43.1945 19.4026C41.2292 16.538 38.1829 16.1465 37.1125 16.1153C34.554 15.8462 32.0722 17.6459 30.7689 17.6459C29.4396 17.6459 27.4326 16.1413 25.2696 16.1856C22.4861 16.2285 19.8821 17.8396 18.4539 20.3415C15.5065 25.4428 17.7047 32.9394 20.5285 37.0628C21.9411 39.0836 23.5917 41.3371 25.7521 41.2578C27.8658 41.1719 28.6553 39.9119 31.206 39.9119C33.7332 39.9119 34.4746 41.2578 36.678 41.207C38.9464 41.1719 40.3746 39.1785 41.7377 37.1408C43.3701 34.8275 44.0257 32.5467 44.0517 32.4296C43.9997 32.4114 39.6475 30.7496 39.6033 25.7276ZM35.441 13.4028C36.5779 11.9815 37.3557 10.0479 37.1398 8.08563C35.4944 8.15845 33.4367 9.22345 32.2517 10.6135C31.2034 11.8385 30.2669 13.8462 30.5088 15.7343C32.3571 15.8722 34.2548 14.802 35.441 13.4028Z" fill="white"/>
<path d="M169.765 0H82.3511L116.589 52H169.765C171.395 51.9986 172.957 51.3512 174.11 50.1997C175.263 49.0481 175.913 47.4865 175.916 45.8571V6.14549C175.913 4.51577 175.264 2.95365 174.111 1.80164C172.958 0.649616 171.395 0.00171896 169.765 0Z" fill="url(#paint0_linear_2_244)"/>
<path d="M70.2169 40.965H67.263L65.6449 35.8819H60.0207L58.4794 40.965H55.6035L61.177 23.6599H64.6187L70.2169 40.965ZM65.1572 33.7493L63.6939 29.2306C63.5391 28.769 63.2477 27.6819 62.8211 25.9706H62.7691C62.5974 26.7066 62.3229 27.7937 61.947 29.2306L60.5085 33.7493H65.1572ZM84.522 34.5725C84.522 36.6946 83.9458 38.3721 82.7921 39.6035C81.7593 40.6997 80.4755 41.2472 78.9446 41.2472C77.2914 41.2472 76.1026 40.6581 75.3807 39.4774V46.0247H72.6076V32.5881C72.6076 31.2552 72.5725 29.8886 72.5048 28.4868H74.9437L75.0984 30.4646H75.1505C76.0753 28.9744 77.4787 28.2293 79.3621 28.2293C80.8345 28.2293 82.0637 28.8106 83.047 29.9744C84.0291 31.1408 84.522 32.6726 84.522 34.5725ZM81.6969 34.6739C81.6969 33.4594 81.4238 32.4581 80.8749 31.6688C80.2752 30.8482 79.4701 30.4373 78.4608 30.4373C77.7766 30.4373 77.1548 30.6662 76.5994 31.1174C76.0427 31.5725 75.6786 32.1668 75.5082 32.9028C75.4321 33.178 75.3889 33.4613 75.3794 33.7467V35.8286C75.3794 36.735 75.6577 37.5009 76.2144 38.1276C76.7711 38.7518 77.4943 39.0652 78.384 39.0652C79.4285 39.0652 80.2414 38.6608 80.8228 37.8585C81.4055 37.0535 81.6969 35.9924 81.6969 34.6739ZM98.8779 34.5725C98.8779 36.6946 98.3017 38.3721 97.1479 39.6035C96.1139 40.6997 94.8314 41.2472 93.2992 41.2472C91.646 41.2472 90.4571 40.6581 89.7352 39.4774V46.0247H86.9621V32.5881C86.9621 31.2552 86.927 29.8886 86.8594 28.4868H89.2982L89.453 30.4646H89.505C90.4285 28.9744 91.832 28.2293 93.7167 28.2293C95.1878 28.2293 96.417 28.8106 97.4029 29.9744C98.3836 31.1408 98.8779 32.6726 98.8779 34.5725ZM96.0515 34.6739C96.0515 33.4594 95.777 32.4581 95.2281 31.6688C94.6285 30.8482 93.826 30.4373 92.8166 30.4373C92.1324 30.4373 91.5107 30.6662 90.9527 31.1174C90.396 31.5725 90.0331 32.1668 89.8627 32.9028C89.7782 33.2461 89.7326 33.5257 89.7326 33.7467V35.8286C89.7326 36.735 90.0123 37.5009 90.5664 38.1276C91.1231 38.7505 91.8463 39.0652 92.7386 39.0652C93.7843 39.0652 94.5973 38.6608 95.1774 37.8585C95.7601 37.0535 96.0515 35.9924 96.0515 34.6739ZM114.929 36.1108C114.929 37.5841 114.413 38.7817 113.39 39.7063C112.263 40.7153 110.691 41.2212 108.675 41.2212C106.812 41.2212 105.319 40.8623 104.193 40.1432L104.834 37.8325C106.05 38.5529 107.386 38.9118 108.84 38.9118C109.886 38.9118 110.699 38.6751 111.279 38.2057C111.86 37.7349 112.154 37.1056 112.154 36.3201C112.154 35.6166 111.911 35.0276 111.434 34.5478C110.954 34.0692 110.16 33.6232 109.045 33.2136C106.015 32.0836 104.498 30.4308 104.498 28.2566C104.498 26.8366 105.034 25.6741 106.103 24.7652C107.172 23.8575 108.59 23.4037 110.354 23.4037C111.929 23.4037 113.242 23.6781 114.283 24.2255L113.588 26.4855C112.607 25.955 111.5 25.6897 110.262 25.6897C109.284 25.6897 108.516 25.9303 107.967 26.4088C107.505 26.8366 107.271 27.3581 107.271 27.977C107.271 28.6597 107.538 29.2267 108.069 29.6714C108.529 30.081 109.369 30.527 110.584 31.0056C112.075 31.6063 113.17 32.3059 113.871 33.1096C114.577 33.9132 114.929 34.9158 114.929 36.1108ZM124.121 30.5674H121.064V36.6257C121.064 38.1666 121.602 38.9352 122.682 38.9352C123.178 38.9352 123.589 38.8935 123.914 38.8064L123.991 40.9117C123.444 41.1159 122.725 41.2186 121.834 41.2186C120.739 41.2186 119.883 40.8844 119.265 40.216C118.65 39.5476 118.34 38.428 118.34 36.852V30.5622H116.519V28.4816H118.34V26.1969L121.064 25.375V28.4816H124.121V30.5674ZM137.885 34.6232C137.885 36.5412 137.336 38.1159 136.241 39.3474C135.095 40.6152 133.57 41.2472 131.67 41.2472C129.836 41.2472 128.378 40.6399 127.29 39.4267C126.203 38.2109 125.659 36.679 125.659 34.8312C125.659 32.8976 126.221 31.3138 127.341 30.0823C128.464 28.8496 129.975 28.2332 131.875 28.2332C133.707 28.2332 135.178 28.8418 136.291 30.0563C137.355 31.2344 137.885 32.7559 137.885 34.6232ZM135.01 34.6869C135.01 33.5439 134.763 32.5634 134.267 31.7429C133.686 30.752 132.854 30.2566 131.775 30.2566C130.664 30.2566 129.812 30.752 129.232 31.7429C128.736 32.5634 128.488 33.5608 128.488 34.7389C128.488 35.8832 128.736 36.8663 129.232 37.6842C129.832 38.6751 130.668 39.1705 131.752 39.1705C132.812 39.1705 133.643 38.6647 134.244 37.6595C134.754 36.8195 135.01 35.8325 135.01 34.6869ZM146.902 30.925C146.614 30.8729 146.321 30.8472 146.028 30.8482C145.053 30.8482 144.298 31.2149 143.768 31.9535C143.307 32.6037 143.076 33.4255 143.076 34.4177V40.965H140.303V32.4165C140.305 31.1066 140.278 29.7968 140.222 28.4881H142.637L142.739 30.8755H142.816C143.11 30.055 143.57 29.3931 144.202 28.8977C144.781 28.4648 145.484 28.2303 146.207 28.2293C146.463 28.2293 146.694 28.2475 146.9 28.28L146.902 30.925ZM159.305 34.1355C159.312 34.557 159.278 34.9781 159.203 35.393H150.884C150.915 36.6257 151.318 37.5698 152.091 38.22C152.792 38.7999 153.699 39.0912 154.812 39.0912C156.044 39.0912 157.168 38.8961 158.178 38.5021L158.613 40.4254C157.432 40.9403 156.037 41.1965 154.428 41.1965C152.493 41.1965 150.974 40.6269 149.868 39.4904C148.765 38.3526 148.212 36.8234 148.212 34.908C148.212 33.0276 148.726 31.4607 149.755 30.2111C150.832 28.8769 152.287 28.2098 154.119 28.2098C155.918 28.2098 157.279 28.8769 158.204 30.2111C158.937 31.2682 159.305 32.579 159.305 34.1355ZM156.66 33.4164C156.68 32.5933 156.498 31.8846 156.122 31.2852C155.642 30.5127 154.903 30.1278 153.913 30.1278C153.007 30.1278 152.268 30.5036 151.706 31.2578C151.244 31.8573 150.97 32.5777 150.885 33.4138L156.66 33.4164Z" fill="white"/>
<path d="M59.2215 17.5416C58.4502 17.5416 57.7829 17.5039 57.2275 17.4402V9.07367C58.0043 8.9537 58.7893 8.89457 59.5753 8.89682C62.7555 8.89682 64.2201 10.4611 64.2201 13.0111C64.2201 15.9526 62.4902 17.5416 59.2215 17.5416ZM59.6872 9.96961C59.2579 9.96961 58.8924 9.99562 58.5894 10.058V16.4181C58.7533 16.4441 59.068 16.4558 59.5103 16.4558C61.594 16.4558 62.7802 15.2699 62.7802 13.0489C62.7802 11.0684 61.7072 9.96961 59.6872 9.96961ZM68.7843 17.6053C66.9919 17.6053 65.8304 16.2672 65.8304 14.4506C65.8304 12.5573 67.0166 11.2076 68.8857 11.2076C70.6521 11.2076 71.8396 12.4819 71.8396 14.3505C71.8396 16.2672 70.6157 17.6053 68.7843 17.6053ZM68.8363 12.2036C67.8517 12.2036 67.2208 13.1243 67.2208 14.4116C67.2208 15.6743 67.8647 16.5949 68.8233 16.5949C69.7819 16.5949 70.4258 15.6106 70.4258 14.3856C70.4258 13.1373 69.7949 12.2036 68.8363 12.2036ZM82.0605 11.3337L80.142 17.4662H78.892L78.0973 14.803C77.8997 14.1516 77.7352 13.4906 77.6043 12.8226H77.5783C77.4782 13.491 77.2883 14.1607 77.0867 14.803L76.2412 17.4662H74.9782L73.1728 11.3337H74.5737L75.2683 14.2491C75.4322 14.9435 75.57 15.5989 75.6845 16.2178H75.7105C75.8107 15.7016 75.9746 15.0566 76.2152 14.2621L77.0867 11.335H78.1975L79.0312 14.1997C79.2328 14.8941 79.3967 15.5755 79.5242 16.2191H79.5606C79.649 15.5885 79.7882 14.9188 79.9768 14.1997L80.7221 11.335L82.0605 11.3337ZM89.1233 17.4662H87.7602V13.9448C87.7602 12.8603 87.344 12.3168 86.5232 12.3168C85.7155 12.3168 85.1601 13.0112 85.1601 13.8187V17.4662H83.797V13.0866C83.797 12.5443 83.784 11.9631 83.7463 11.3324H84.9455L85.0092 12.279H85.047C85.4138 11.6237 86.1577 11.2076 86.9915 11.2076C88.2792 11.2076 89.1246 12.1919 89.1246 13.794L89.1233 17.4662ZM92.8824 17.4662H91.5179V8.51971H92.8824V17.4662ZM97.8524 17.6053C96.0613 17.6053 94.8985 16.2672 94.8985 14.4506C94.8985 12.5573 96.0847 11.2076 97.9525 11.2076C99.7202 11.2076 100.906 12.4819 100.906 14.3505C100.908 16.2672 99.6825 17.6053 97.8524 17.6053ZM97.9031 12.2036C96.9185 12.2036 96.2876 13.1243 96.2876 14.4116C96.2876 15.6743 96.9328 16.5949 97.8888 16.5949C98.8487 16.5949 99.4912 15.6106 99.4912 14.3856C99.4925 13.1373 98.863 12.2036 97.9031 12.2036ZM106.281 17.4662L106.182 16.7601H106.146C105.729 17.3283 105.122 17.6053 104.352 17.6053C103.253 17.6053 102.472 16.8355 102.472 15.8004C102.472 14.2868 103.785 13.504 106.057 13.504V13.3909C106.057 12.5833 105.629 12.1789 104.784 12.1789C104.179 12.1789 103.648 12.3311 103.181 12.634L102.904 11.7381C103.471 11.3844 104.179 11.2076 105.01 11.2076C106.613 11.2076 107.422 12.0528 107.422 13.7446V16.0033C107.422 16.6222 107.449 17.1021 107.51 17.4675L106.281 17.4662ZM106.094 14.4116C104.58 14.4116 103.82 14.7783 103.82 15.6483C103.82 16.292 104.211 16.6066 104.755 16.6066C105.448 16.6066 106.094 16.0774 106.094 15.3583V14.4116ZM114.041 17.4662L113.977 16.4818H113.939C113.548 17.2256 112.89 17.6053 111.97 17.6053C110.491 17.6053 109.396 16.305 109.396 14.4754C109.396 12.5573 110.532 11.2063 112.082 11.2063C112.903 11.2063 113.484 11.4832 113.812 12.0398H113.839V8.51971H115.204V15.8134C115.204 16.4064 115.218 16.9616 115.254 17.4662H114.041ZM113.839 13.8577C113.839 12.9994 113.271 12.2673 112.403 12.2673C111.393 12.2673 110.775 13.1633 110.775 14.4246C110.775 15.6613 111.416 16.5078 112.376 16.5078C113.233 16.5078 113.839 15.7627 113.839 14.8798V13.8577ZM123.855 17.6053C122.064 17.6053 120.902 16.2672 120.902 14.4506C120.902 12.5573 122.088 11.2076 123.956 11.2076C125.724 11.2076 126.91 12.4819 126.91 14.3505C126.911 16.2672 125.687 17.6053 123.855 17.6053ZM123.905 12.2036C122.922 12.2036 122.291 13.1243 122.291 14.4116C122.291 15.6743 122.935 16.5949 123.892 16.5949C124.852 16.5949 125.495 15.6106 125.495 14.3856C125.497 13.1373 124.867 12.2036 123.905 12.2036ZM134.241 17.4662H132.876V13.9448C132.876 12.8603 132.46 12.3168 131.639 12.3168C130.832 12.3168 130.278 13.0112 130.278 13.8187V17.4662H128.913V13.0866C128.913 12.5443 128.9 11.9631 128.862 11.3324H130.062L130.125 12.279H130.163C130.529 11.6237 131.274 11.2063 132.106 11.2063C133.394 11.2063 134.241 12.1906 134.241 13.7927V17.4662ZM143.412 12.3558H141.912V15.3336C141.912 16.0917 142.175 16.4701 142.706 16.4701C142.946 16.4701 143.148 16.4441 143.311 16.4064L143.348 17.4415C143.084 17.5429 142.73 17.5936 142.291 17.5936C141.216 17.5936 140.574 17.0006 140.574 15.448V12.3558H139.679V11.3337H140.574V10.2102L141.912 9.80577V11.3324H143.412V12.3558ZM150.628 17.4662H149.267V13.9708C149.267 12.8733 148.852 12.3181 148.03 12.3181C147.323 12.3181 146.665 12.7979 146.665 13.7693V17.4662H145.303V8.51971H146.665V12.2036H146.692C147.122 11.5352 147.743 11.2063 148.537 11.2063C149.835 11.2063 150.628 12.2153 150.628 13.8187V17.4662ZM158.022 14.7276H153.931C153.957 15.8888 154.726 16.5442 155.864 16.5442C156.468 16.5442 157.025 16.4428 157.517 16.2542L157.729 17.2009C157.149 17.4532 156.466 17.5793 155.671 17.5793C153.753 17.5793 152.617 16.3674 152.617 14.4884C152.617 12.608 153.78 11.1945 155.518 11.1945C157.085 11.1945 158.068 12.3558 158.068 14.11C158.077 14.317 158.061 14.5243 158.022 14.7276ZM156.772 13.7563C156.772 12.8096 156.294 12.1412 155.423 12.1412C154.64 12.1412 154.021 12.8226 153.932 13.7563H156.772Z" fill="white"/>
<defs>
<linearGradient id="paint0_linear_2_244" x1="129.132" y1="52.1381" x2="129.132" y2="-135.399" gradientUnits="userSpaceOnUse">
<stop stop-color="#1A1A1A" stop-opacity="0.1"/>
<stop offset="0.123" stop-color="#212121" stop-opacity="0.151"/>
<stop offset="0.308" stop-color="#353535" stop-opacity="0.227"/>
<stop offset="0.532" stop-color="#575757" stop-opacity="0.318"/>
<stop offset="0.783" stop-color="#858585" stop-opacity="0.421"/>
<stop offset="1" stop-color="#B3B3B3" stop-opacity="0.51"/>
</linearGradient>
</defs>
</svg>
