<svg width="176" height="52" viewBox="0 0 176 52" fill="none" xmlns="http://www.w3.org/2000/svg">
<path d="M169 52H6.5C2.86 52 0 49.14 0 45.5V6.5C0 2.86 2.86 0 6.5 0H169C172.64 0 175.5 2.86 175.5 6.5V45.5C175.5 49.14 172.64 52 169 52Z" fill="black"/>
<path d="M169 1.04C171.99 1.04 174.46 3.51 174.46 6.5V45.5C174.46 48.49 171.99 50.96 169 50.96H6.5C3.51 50.96 1.04 48.49 1.04 45.5V6.5C1.04 3.51 3.51 1.04 6.5 1.04H169ZM169 0H6.5C2.86 0 0 2.99 0 6.5V45.5C0 49.14 2.86 52 6.5 52H169C172.64 52 175.5 49.14 175.5 45.5V6.5C175.5 2.99 172.64 0 169 0Z" fill="#A6A6A6"/>
<path d="M61.6203 13.2605C61.6203 14.3005 61.3603 15.2105 60.7103 15.8605C59.9303 16.6405 59.0203 17.0305 57.8503 17.0305C56.6803 17.0305 55.7703 16.6405 54.9903 15.8605C54.2103 15.0805 53.8203 14.1705 53.8203 13.0005C53.8203 11.8305 54.2103 10.9205 54.9903 10.1405C55.7703 9.36052 56.6803 8.97052 57.8503 8.97052C58.3703 8.97052 58.8903 9.10052 59.4103 9.36052C59.9303 9.62052 60.3203 9.88052 60.5803 10.2705L59.9303 10.9205C59.4103 10.2705 58.7603 10.0105 57.8503 10.0105C57.0703 10.0105 56.2903 10.2705 55.7703 10.9205C55.1203 11.4405 54.8603 12.2205 54.8603 13.1305C54.8603 14.0405 55.1203 14.8205 55.7703 15.3405C56.4203 15.8605 57.0703 16.2505 57.8503 16.2505C58.7603 16.2505 59.4103 15.9905 60.0603 15.3405C60.4503 14.9505 60.7103 14.4305 60.7103 13.7805H57.8503V12.7405H61.6203V13.2605ZM67.6003 10.0105H64.0903V12.4805H67.3403V13.3905H64.0903V15.8605H67.6003V16.9005H63.0503V9.10052H67.6003V10.0105ZM71.8903 16.9005H70.8503V10.0105H68.6403V9.10052H74.1003V10.0105H71.8903V16.9005ZM77.8703 16.9005V9.10052H78.9103V16.9005H77.8703ZM83.3303 16.9005H82.2903V10.0105H80.0803V9.10052H85.4103V10.0105H83.2003V16.9005H83.3303ZM95.6803 15.8605C94.9003 16.6405 93.9903 17.0305 92.8203 17.0305C91.6503 17.0305 90.7403 16.6405 89.9603 15.8605C89.1803 15.0805 88.7903 14.1705 88.7903 13.0005C88.7903 11.8305 89.1803 10.9205 89.9603 10.1405C90.7403 9.36052 91.6503 8.97052 92.8203 8.97052C93.9903 8.97052 94.9003 9.36052 95.6803 10.1405C96.4603 10.9205 96.8503 11.8305 96.8503 13.0005C96.8503 14.1705 96.4603 15.0805 95.6803 15.8605ZM90.7403 15.2105C91.2603 15.7305 92.0403 16.1205 92.8203 16.1205C93.6003 16.1205 94.3803 15.8605 94.9003 15.2105C95.4203 14.6905 95.8103 13.9105 95.8103 13.0005C95.8103 12.0905 95.5503 11.3105 94.9003 10.7905C94.3803 10.2705 93.6003 9.88052 92.8203 9.88052C92.0403 9.88052 91.2603 10.1405 90.7403 10.7905C90.2203 11.3105 89.8303 12.0905 89.8303 13.0005C89.8303 13.9105 90.0903 14.6905 90.7403 15.2105ZM98.2803 16.9005V9.10052H99.4503L103.22 15.2105V9.10052H104.26V16.9005H103.22L99.1903 10.5305V16.9005H98.2803Z" fill="white" stroke="white" stroke-width="1.18519" stroke-miterlimit="10"/>
<path d="M88.5297 28.3396C85.4097 28.3396 82.9397 30.6796 82.9397 33.9296C82.9397 37.0496 85.4097 39.5196 88.5297 39.5196C91.6497 39.5196 94.1197 37.1796 94.1197 33.9296C94.1197 30.5496 91.6497 28.3396 88.5297 28.3396ZM88.5297 37.1796C86.8397 37.1796 85.4097 35.7496 85.4097 33.7996C85.4097 31.8496 86.8397 30.4196 88.5297 30.4196C90.2197 30.4196 91.6497 31.7196 91.6497 33.7996C91.6497 35.7496 90.2197 37.1796 88.5297 37.1796ZM76.4397 28.3396C73.3197 28.3396 70.8497 30.6796 70.8497 33.9296C70.8497 37.0496 73.3197 39.5196 76.4397 39.5196C79.5597 39.5196 82.0297 37.1796 82.0297 33.9296C82.0297 30.5496 79.5597 28.3396 76.4397 28.3396ZM76.4397 37.1796C74.7497 37.1796 73.3197 35.7496 73.3197 33.7996C73.3197 31.8496 74.7497 30.4196 76.4397 30.4196C78.1297 30.4196 79.5597 31.7196 79.5597 33.7996C79.5597 35.7496 78.1297 37.1796 76.4397 37.1796ZM62.0097 30.0296V32.3696H67.5997C67.4697 33.6696 66.9497 34.7096 66.2997 35.3596C65.5197 36.1396 64.2197 37.0496 62.0097 37.0496C58.4997 37.0496 55.8997 34.3196 55.8997 30.8096C55.8997 27.2996 58.6297 24.5696 62.0097 24.5696C63.8297 24.5696 65.2597 25.3496 66.2997 26.2596L67.9897 24.5696C66.5597 23.2696 64.7397 22.2296 62.1397 22.2296C57.4597 22.2296 53.4297 26.1296 53.4297 30.8096C53.4297 35.4896 57.4597 39.3896 62.1397 39.3896C64.7397 39.3896 66.5597 38.6096 68.1197 36.9196C69.6797 35.3596 70.1997 33.1496 70.1997 31.4596C70.1997 30.9396 70.1997 30.4196 70.0697 30.0296H62.0097ZM121.03 31.8496C120.51 30.5496 119.21 28.3396 116.35 28.3396C113.49 28.3396 111.15 30.5496 111.15 33.9296C111.15 37.0496 113.49 39.5196 116.61 39.5196C119.08 39.5196 120.64 37.9596 121.16 37.0496L119.34 35.7496C118.69 36.6596 117.91 37.3096 116.61 37.3096C115.31 37.3096 114.53 36.7896 113.88 35.6196L121.29 32.4996L121.03 31.8496ZM113.49 33.6696C113.49 31.5896 115.18 30.4196 116.35 30.4196C117.26 30.4196 118.17 30.9396 118.43 31.5896L113.49 33.6696ZM107.38 38.9996H109.85V22.7496H107.38V38.9996ZM103.48 29.5096C102.83 28.8596 101.79 28.2096 100.49 28.2096C97.7597 28.2096 95.1597 30.6796 95.1597 33.7996C95.1597 36.9196 97.6297 39.2596 100.49 39.2596C101.79 39.2596 102.83 38.6096 103.35 37.9596H103.48V38.7396C103.48 40.8196 102.31 41.9896 100.49 41.9896C99.0597 41.9896 98.0197 40.9496 97.7597 40.0396L95.6797 40.9496C96.3297 42.3796 97.8897 44.1996 100.62 44.1996C103.48 44.1996 105.82 42.5096 105.82 38.4796V28.5996H103.48V29.5096ZM100.62 37.1796C98.9297 37.1796 97.4997 35.7496 97.4997 33.7996C97.4997 31.8496 98.9297 30.4196 100.62 30.4196C102.31 30.4196 103.61 31.8496 103.61 33.7996C103.61 35.7496 102.31 37.1796 100.62 37.1796ZM132.34 22.7496H126.49V38.9996H128.96V32.8896H132.34C135.07 32.8896 137.67 30.9396 137.67 27.8196C137.67 24.6996 135.07 22.7496 132.34 22.7496ZM132.47 30.5496H128.96V24.9596H132.47C134.29 24.9596 135.33 26.5196 135.33 27.6896C135.2 29.1196 134.16 30.5496 132.47 30.5496ZM147.42 28.2096C145.6 28.2096 143.78 28.9896 143.13 30.6796L145.34 31.5896C145.86 30.6796 146.64 30.4196 147.55 30.4196C148.85 30.4196 150.02 31.1996 150.15 32.4996V32.6296C149.76 32.3696 148.72 31.9796 147.68 31.9796C145.34 31.9796 143 33.2796 143 35.6196C143 37.8296 144.95 39.2596 147.03 39.2596C148.72 39.2596 149.5 38.4796 150.15 37.6996H150.28V38.9996H152.62V32.7596C152.36 29.8996 150.15 28.2096 147.42 28.2096ZM147.16 37.1796C146.38 37.1796 145.21 36.7896 145.21 35.7496C145.21 34.4496 146.64 34.0596 147.81 34.0596C148.85 34.0596 149.37 34.3196 150.02 34.5796C149.76 36.1396 148.46 37.1796 147.16 37.1796ZM160.81 28.5996L158.08 35.6196H157.95L155.09 28.5996H152.49L156.78 38.4796L154.31 43.9396H156.78L163.41 28.5996H160.81ZM138.97 38.9996H141.44V22.7496H138.97V38.9996Z" fill="white"/>
<path d="M13.52 9.75C13.13 10.14 13 10.79 13 11.57V40.3C13 41.08 13.26 41.73 13.65 42.12L13.78 42.25L29.9 26.13V25.87L13.52 9.75Z" fill="url(#paint0_linear_2_231)"/>
<path d="M35.1 31.5904L29.77 26.2604V25.8704L35.1 20.5404L35.23 20.6704L41.6 24.3104C43.42 25.3504 43.42 27.0404 41.6 28.0804L35.1 31.5904Z" fill="url(#paint1_linear_2_231)"/>
<path d="M35.23 31.46L29.77 26L13.52 42.25C14.17 42.9 15.08 42.9 16.25 42.38L35.23 31.46Z" fill="url(#paint2_linear_2_231)"/>
<path d="M35.23 20.5404L16.25 9.7504C15.08 9.1004 14.17 9.2304 13.52 9.8804L29.77 26.0004L35.23 20.5404Z" fill="url(#paint3_linear_2_231)"/>
<path opacity="0.2" d="M35.1 31.3307L16.25 41.9907C15.21 42.6407 14.3 42.5107 13.65 41.9907L13.52 42.1208L13.65 42.2507C14.3 42.7708 15.21 42.9007 16.25 42.2507L35.1 31.3307Z" fill="black"/>
<path opacity="0.12" d="M13.52 41.99C13.13 41.6 13 40.95 13 40.17V40.3C13 41.08 13.26 41.73 13.65 42.12V41.99H13.52ZM41.6 27.69L35.1 31.33L35.23 31.46L41.6 27.82C42.51 27.3 42.9 26.65 42.9 26C42.9 26.65 42.38 27.17 41.6 27.69Z" fill="black"/>
<path opacity="0.25" d="M16.25 9.88071L41.6 24.3107C42.38 24.8307 42.9 25.3507 42.9 26.0007C42.9 25.3507 42.51 24.7007 41.6 24.1807L16.25 9.75071C14.43 8.71071 13 9.4907 13 11.5707V11.7007C13 9.75071 14.43 8.84071 16.25 9.88071Z" fill="white"/>
<defs>
<linearGradient id="paint0_linear_2_231" x1="28.34" y1="11.323" x2="6.5221" y2="33.1396" gradientUnits="userSpaceOnUse">
<stop stop-color="#00A0FF"/>
<stop offset="0.007" stop-color="#00A1FF"/>
<stop offset="0.26" stop-color="#00BEFF"/>
<stop offset="0.512" stop-color="#00D2FF"/>
<stop offset="0.76" stop-color="#00DFFF"/>
<stop offset="1" stop-color="#00E3FF"/>
</linearGradient>
<linearGradient id="paint1_linear_2_231" x1="43.9842" y1="26.0017" x2="12.5281" y2="26.0017" gradientUnits="userSpaceOnUse">
<stop stop-color="#FFE000"/>
<stop offset="0.409" stop-color="#FFBD00"/>
<stop offset="0.775" stop-color="#FFA500"/>
<stop offset="1" stop-color="#FF9C00"/>
</linearGradient>
<linearGradient id="paint2_linear_2_231" x1="32.2751" y1="28.9848" x2="2.68972" y2="58.5702" gradientUnits="userSpaceOnUse">
<stop stop-color="#FF3A44"/>
<stop offset="1" stop-color="#C31162"/>
</linearGradient>
<linearGradient id="paint3_linear_2_231" x1="9.48612" y1="0.229202" x2="22.698" y2="13.4411" gradientUnits="userSpaceOnUse">
<stop stop-color="#32A071"/>
<stop offset="0.069" stop-color="#2DA771"/>
<stop offset="0.476" stop-color="#15CF74"/>
<stop offset="0.801" stop-color="#06E775"/>
<stop offset="1" stop-color="#00F076"/>
</linearGradient>
</defs>
</svg>
